<svg width="32" height="24" viewBox="0 0 32 24" fill="none" xmlns="http://www.w3.org/2000/svg">
<path d="M12.743 22.1562C9.95477 24.7486 5.20642 24.0631 2.98319 21.3182C0.351913 18.0763 -0.173477 11.9318 4.41056 6.43549C6.6843 3.70923 9.42453 1.64219 12.6284 0.234375L14.1061 2.61426C9.54842 4.82282 6.1419 7.81728 5.65916 12.8377C7.71553 12.8377 9.42165 12.7632 10.9413 13.307C12.6714 13.9261 13.7223 15.0742 14.1536 16.3908C14.8378 18.4522 14.5061 20.5168 12.743 22.1562ZM29.2681 22.1562C26.4799 24.7486 21.7316 24.0631 19.5083 21.3182C16.8771 18.0763 16.3517 11.9318 20.9357 6.43549C23.2095 3.70923 25.9497 1.64219 29.1536 0.234375L30.6312 2.61426C26.0736 4.82282 22.6671 7.81728 22.1843 12.8377C24.2407 12.8377 25.9468 12.7632 27.4664 13.307C29.1965 13.9261 30.2474 15.0742 30.6787 16.3908C31.3629 18.4522 31.0312 20.5168 29.2681 22.1562Z" fill="#2A990C"/>
</svg>
